<?xml version="1.0" encoding="UTF-8" standalone="no" ?>
<!DOCTYPE svg PUBLIC "-//W3C//DTD SVG 1.1//EN" "http://www.w3.org/Graphics/SVG/1.1/DTD/svg11.dtd">
<svg xmlns="http://www.w3.org/2000/svg" xmlns:xlink="http://www.w3.org/1999/xlink" version="1.1" width="1080" height="1080" viewBox="0 0 1080 1080" xml:space="preserve">
<desc>Created with Fabric.js 5.2.4</desc>
<defs>
</defs>
<g transform="matrix(1 0 0 1 540 540)" id="d62cc6e6-7ec8-4df1-95f8-23651b0a60bc"  >
<rect style="stroke: none; stroke-width: 1; stroke-dasharray: none; stroke-linecap: butt; stroke-dashoffset: 0; stroke-linejoin: miter; stroke-miterlimit: 4; fill: rgb(255,255,255); fill-rule: nonzero; opacity: 1; visibility: hidden;" vector-effect="non-scaling-stroke"  x="-540" y="-540" rx="0" ry="0" width="1080" height="1080" />
</g>
<g transform="matrix(1 0 0 1 540 540)" id="52867652-f46a-46f1-bedc-3830674a9cbc"  >
</g>
<g transform="matrix(45 0 0 45 517.5 517.5)" id="Vector"  >
<path style="stroke: none; stroke-width: 0; stroke-dasharray: none; stroke-linecap: butt; stroke-dashoffset: 0; stroke-linejoin: miter; stroke-miterlimit: 4; fill: rgb(0,0,0); fill-rule: nonzero; opacity: 1;"  transform=" translate(-12, -11.99)" d="M 17 2 L 7 2 C 4.24 2 2 4.23 2 6.98 L 2 13.96 C 2 16.71 4.24 18.94 7 18.94 L 8.5 18.94 C 8.77 18.94 9.13 19.12 9.3 19.34 L 10.8 21.33 C 11.46 22.21 12.54 22.21 13.2 21.33 L 14.7 19.34 C 14.89 19.09 15.19 18.94 15.5 18.94 L 17 18.94 C 19.76 18.94 22 16.71 22 13.96 L 22 6.98 C 22 4.23 19.76 2 17 2 Z M 8 12 C 7.44 12 7 11.55 7 11 C 7 10.45 7.45 10 8 10 C 8.55 10 9 10.45 9 11 C 9 11.55 8.56 12 8 12 Z M 12 12 C 11.44 12 11 11.55 11 11 C 11 10.45 11.45 10 12 10 C 12.55 10 13 10.45 13 11 C 13 11.55 12.56 12 12 12 Z M 16 12 C 15.44 12 15 11.55 15 11 C 15 10.45 15.45 10 16 10 C 16.55 10 17 10.45 17 11 C 17 11.55 16.56 12 16 12 Z" stroke-linecap="round" />
</g>
</svg>